HIERARCHY
ROOT Hips
{
	OFFSET 0.000000 0.000000 0.000000
	CHANNELS 6 Xposition Yposition Zposition Xrotation Yrotation Zrotation
	JOINT LeftUpLeg_virtual
	{
		OFFSET 0.000000 0.000000 0.000000
		CHANNELS 3 Xrotation Yrotation Zrotation
		JOINT LeftUpLeg
		{
			OFFSET 13.026900 -6.336304 -1.092800
			CHANNELS 3 Xrotation Yrotation Zrotation
			JOINT LeftLeg
			{
				OFFSET 0.524474 -46.096886 9.782700
				CHANNELS 3 Xrotation Yrotation Zrotation
				JOINT LeftFoot
				{
					OFFSET -0.524474 -53.427422 -12.948200
					CHANNELS 3 Xrotation Yrotation Zrotation
					JOINT LeftToeBase
					{
						OFFSET 0.192200 -14.009700 16.364100
						CHANNELS 3 Xrotation Yrotation Zrotation
						JOINT LeftToe_End
						{
							OFFSET -1.784700 -0.561700 9.474800
							CHANNELS 3 Xrotation Yrotation Zrotation
							End Site
							{
								OFFSET 0 0 0
							}
						}
					}
				}
			}
		}
	}
	JOINT RightUpLeg_virtual
	{
		OFFSET 0.000000 0.000000 0.000000
		CHANNELS 3 Xrotation Yrotation Zrotation
		JOINT RightUpLeg
		{
			OFFSET -12.883000 -6.336304 -1.092800
			CHANNELS 3 Xrotation Yrotation Zrotation
			JOINT RightLeg
			{
				OFFSET -0.524587 -46.096825 9.782800
				CHANNELS 3 Xrotation Yrotation Zrotation
				JOINT RightFoot
				{
					OFFSET 0.524587 -53.427383 -12.948300
					CHANNELS 3 Xrotation Yrotation Zrotation
					JOINT RightToeBase
					{
						OFFSET -0.192200 -14.009700 16.364100
						CHANNELS 3 Xrotation Yrotation Zrotation
						JOINT RightToe_End
						{
							OFFSET 1.784700 -0.561700 9.474800
							CHANNELS 3 Xrotation Yrotation Zrotation
							End Site
							{
								OFFSET 0 0 0
							}
						}
					}
				}
			}
		}
	}
	JOINT Spine_virtual
	{
		OFFSET 0.000000 0.000000 0.000000
		CHANNELS 3 Xrotation Yrotation Zrotation
		JOINT Spine
		{
			OFFSET 0.072000 7.257294 -0.789700
			CHANNELS 3 Xrotation Yrotation Zrotation
			JOINT Spine1
			{
				OFFSET 0.000000 12.508769 -0.658067
				CHANNELS 3 Xrotation Yrotation Zrotation
				JOINT Spine1_split
				{
					OFFSET 0.000000 12.508769 -0.658067
					CHANNELS 3 Xrotation Yrotation Zrotation
					JOINT Spine2
					{
						OFFSET 0.000000 12.508769 -0.658067
						CHANNELS 3 Xrotation Yrotation Zrotation
						JOINT Neck_virtual
						{
							OFFSET 0.000000 0.000000 0.000000
							CHANNELS 3 Xrotation Yrotation Zrotation
							JOINT Neck
							{
								OFFSET 0.000000 14.033295 7.520400
								CHANNELS 3 Xrotation Yrotation Zrotation
								JOINT Head
								{
									OFFSET 0.000000 8.198502 5.703100
									CHANNELS 3 Xrotation Yrotation Zrotation
									JOINT HeadTop_End
									{
										OFFSET 0.000000 17.760803 13.332701
										CHANNELS 3 Xrotation Yrotation Zrotation
										End Site
										{
											OFFSET 0 0 0
										}
									}
								}
							}
						}
						JOINT LeftShoulder_virtual
						{
							OFFSET 0.000000 0.000000 0.000000
							CHANNELS 3 Xrotation Yrotation Zrotation
							JOINT LeftShoulder
							{
								OFFSET 6.292450 5.785301 -0.669000
								CHANNELS 3 Xrotation Yrotation Zrotation
								JOINT LeftShoulder_split
								{
									OFFSET 6.292450 5.785301 -0.669000
									CHANNELS 3 Xrotation Yrotation Zrotation
									JOINT LeftArm
									{
										OFFSET 13.907140 -6.093903 1.965100
										CHANNELS 3 Xrotation Yrotation Zrotation
										JOINT LeftForeArm
										{
											OFFSET 34.140198 0.000000 0.000000
											CHANNELS 3 Xrotation Yrotation Zrotation
											JOINT LeftHand
											{
												OFFSET 40.960209 0.000000 0.000000
												CHANNELS 3 Xrotation Yrotation Zrotation
												End Site
												{
													OFFSET 0 0 0
												}
											}
										}
									}
								}
							}
						}
						JOINT RightShoulder_virtual
						{
							OFFSET 0.000000 0.000000 0.000000
							CHANNELS 3 Xrotation Yrotation Zrotation
							JOINT RightShoulder
							{
								OFFSET -6.292450 5.785301 -0.669000
								CHANNELS 3 Xrotation Yrotation Zrotation
								JOINT RightShoulder_split
								{
									OFFSET -6.292450 5.785301 -0.669000
									CHANNELS 3 Xrotation Yrotation Zrotation
									JOINT RightArm
									{
										OFFSET -13.907140 -6.093903 1.965100
										CHANNELS 3 Xrotation Yrotation Zrotation
										JOINT RightForeArm
										{
											OFFSET -34.140198 0.000000 0.000000
											CHANNELS 3 Xrotation Yrotation Zrotation
											JOINT RightHand
											{
												OFFSET -40.960209 0.000000 0.000000
												CHANNELS 3 Xrotation Yrotation Zrotation
												End Site
												{
													OFFSET 0 0 0
												}
											}
										}
									}
								}
							}
						}
					}
				}
			}
		}
	}
}
MOTION
Frames: 4
Frame Time: 0.03333333
2.241568 101.327133 31.220327 0.000000 0.000000 0.000000 6.911891 -50.867520 4.855508 -8.189568 17.955575 -4.754321 43.378733 2.479856 -9.941833 -26.899085 -9.095778 14.983488 -2.326193 -6.465968 -3.606395 0.000000 0.000000 0.000000 6.837368 -48.469819 4.804433 -48.669855 -5.722817 3.043464 30.171439 7.020209 -1.647599 3.145081 2.794309 6.004108 1.790078 -1.054295 -0.674380 0.000000 0.000000 0.000000 4.502769 -46.359147 4.207478 15.503756 -6.068714 2.899326 5.729149 -5.749531 2.436807 -0.222588 -2.086242 0.988180 0.000000 0.000000 0.000000 -2.789816 -5.144113 1.586567 1.725740 39.545627 -10.610335 -0.230579 27.962994 -7.481198 0.000000 0.000000 0.000000 -2.085951 -6.443207 1.779064 0.993750 -2.366036 -3.185571 -3.018953 2.182919 -2.032041 -0.480185 -2.111794 -27.554460 -0.561708 -26.270574 -1.767438 0.000000 0.000000 0.000000 -3.717379 -6.022818 2.855356 9.717714 -12.263392 3.284935 -0.294444 1.431792 -1.147770 2.300078 5.836266 77.581940 -6.394373 11.254384 6.087765 0.000000 0.000000 0.000000 
4.431803 101.712334 28.765285 0.000000 0.000000 0.000000 7.795607 -55.403305 5.967724 -8.395845 16.558856 -6.495649 41.453835 2.143475 -9.509563 -26.914494 -10.119615 16.292629 -1.151220 -6.967362 -2.967133 0.000000 0.000000 0.000000 6.523535 -51.270310 5.188747 -46.515501 -5.538277 1.881063 30.891658 6.435049 -2.016165 3.072210 3.376101 6.367411 3.659792 -0.923974 -0.103929 0.000000 0.000000 0.000000 3.920983 -49.677673 4.457150 15.451686 -5.910119 2.319072 4.904784 -5.224509 2.452557 -0.294576 -1.782178 0.714630 0.000000 0.000000 0.000000 -3.878164 -4.516995 1.606477 2.222772 39.955927 -10.925300 0.465484 27.885931 -8.038215 0.000000 0.000000 0.000000 -2.908722 -5.828404 1.947267 0.843639 -1.408238 -3.109379 -1.714515 3.471484 -2.394842 -5.536112 -3.667901 -27.876183 -0.044202 -30.850243 -1.734610 0.000000 0.000000 0.000000 -4.596835 -5.475647 2.824813 10.135529 -11.270638 3.436994 -1.086662 2.035641 -1.631713 3.807012 11.427566 74.192356 -4.917223 14.937864 7.558715 0.000000 0.000000 0.000000 
6.243614 102.010696 26.322090 0.000000 0.000000 0.000000 9.430035 -59.706679 7.762926 -9.938400 15.084237 -7.679222 41.174761 2.382990 -8.394290 -26.116606 -10.504345 16.012841 -0.755435 -7.501400 -2.401151 0.000000 0.000000 0.000000 6.044390 -54.087011 5.502893 -44.722081 -4.741229 0.699210 32.055338 6.196277 -2.353086 5.036186 4.037741 7.764248 4.155454 -0.780675 0.510895 0.000000 0.000000 0.000000 3.365613 -52.825250 4.601583 15.687068 -5.548991 2.052636 4.194756 -4.591990 2.406670 -0.156771 -1.703709 0.706749 0.000000 0.000000 0.000000 -4.809168 -3.860383 1.591707 3.480549 40.186439 -11.698350 0.724958 27.461727 -8.355812 0.000000 0.000000 0.000000 -3.473219 -5.129314 1.998372 0.788425 -0.621459 -3.400456 -0.186428 4.149308 -2.333902 -8.922360 -4.992710 -28.463821 -0.202635 -34.581880 -1.981811 0.000000 0.000000 0.000000 -5.174353 -4.810827 2.685163 10.441197 -9.963013 4.193552 -1.890967 2.177323 -2.065927 5.778524 15.051821 70.130777 -2.982916 19.582468 8.758197 0.000000 0.000000 0.000000 
7.613566 102.504608 23.850048 0.000000 0.000000 0.000000 10.879542 -63.421899 9.548682 -11.715298 13.652336 -8.943420 40.718849 3.332297 -6.710135 -25.456144 -9.861536 14.231333 0.860393 -8.050663 -1.802336 0.000000 0.000000 0.000000 5.192884 -56.990006 5.496935 -43.179080 -3.666295 -0.595619 33.059246 6.074021 -2.670526 7.472469 4.694275 9.436560 3.947322 -0.597926 1.082513 0.000000 0.000000 0.000000 2.352016 -55.588188 4.245640 16.093042 -4.984448 2.026681 3.566479 -3.858038 2.229749 -0.178944 -2.200766 0.786173 0.000000 0.000000 0.000000 -5.475349 -3.171099 1.492723 5.382244 40.247907 -12.743881 0.762069 26.789383 -8.573485 0.000000 0.000000 0.000000 -3.815585 -4.367906 1.870954 0.781169 -0.036564 -4.106891 1.206330 4.224120 -2.043962 -10.716788 -6.295846 -29.065501 -1.123350 -38.036483 -2.574708 0.000000 0.000000 0.000000 -5.455123 -4.068795 2.377004 10.563085 -8.451960 5.381955 -2.473207 1.947646 -2.816853 7.251882 16.388125 65.664168 -0.830341 24.353830 9.452543 0.000000 0.000000 0.000000 
